# xmcd
#
# Track frame offsets: 
#        150
#        12488
#        25866
#        37774
#        52527
#        65708
#        80544
#        92833
#        106573
#        120199
#        134548
#        147029
#        158687
#        171016
#        182974
#        195890
#        210278
#        224580
#
# Disc length: 3165 seconds
#
# Revision: 2
# Processed by: cddbd v1.5.2PL0 Copyright (c) Steve Scherf et al.
# Submitted via: ExactAudioCopyFreeDBPlugin 1.0
#
DISCID=e00c5b12
DTITLE=Buddy Moss - The Essential - Disc 1
DYEAR=2002
DGENRE=Blues
TTITLE0=Oh Lordy Mama
TTITLE1=Jealous Hearted Man
TTITLE2=Misery Man Blues
TTITLE3=Bye Bye Mama
TTITLE4=Red River Blues
TTITLE5=Daddy Don't Care
TTITLE6=Stinging Bull Nettle
TTITLE7=Going To Your Funeral
TTITLE8=Man Of My Own (With Ruth Willis)
TTITLE9=Hard Time Blues
TTITLE10=Back To My Used To Be
TTITLE11=Joy Rag
TTITLE12=Struggle Buggie
TTITLE13=Love Me, Baby, Love Me
TTITLE14=Joker Man Blues (With The Georgia Browns)
TTITLE15=Can't Use You No More
TTITLE16=Prowling Gambler Blues
TTITLE17=Tricks Ain't Walking No More
EXTD=hale
EXTT0=
EXTT1=
EXTT2=
EXTT3=
EXTT4=
EXTT5=
EXTT6=
EXTT7=
EXTT8=
EXTT9=
EXTT10=
EXTT11=
EXTT12=
EXTT13=
EXTT14=
EXTT15=
EXTT16=
EXTT17=
PLAYORDER=
